# Blender 4.1.1
# www.blender.org
mtllib music_box.mtl
o Cube
v 1.000000 -0.593523 -1.000000
v 1.000000 -0.593523 1.000000
v -1.000000 -0.593523 -1.000000
v -1.000000 -0.593523 1.000000
v 0.852500 0.593523 -0.852500
v 1.000000 0.446023 -1.000000
v 0.852500 0.593523 0.852500
v 1.000000 0.446023 1.000000
v -0.852500 0.593523 -0.852500
v -1.000000 0.446023 -1.000000
v -0.852500 0.593523 0.852500
v -1.000000 0.446023 1.000000
v -0.169171 0.219267 1.162630
v -0.219267 0.169171 1.162630
v -0.050097 0.000000 0.971007
v 0.000000 0.050097 0.971007
v 0.000000 -0.050097 1.162630
v 0.050097 0.000000 1.162630
v 0.000000 -0.050097 0.971007
v 0.050097 0.000000 0.971007
v -1.000000 -0.478149 -1.000000
v 1.000000 -0.478149 -1.000000
v 1.000000 -0.478149 1.000000
v -1.000000 -0.478149 1.000000
v -1.042786 -0.595991 -1.042786
v -1.042786 -0.595991 1.042786
v 1.042786 -0.595991 -1.042786
v 1.042786 -0.595991 1.042786
v 1.042786 -0.475680 -1.042786
v 1.042786 -0.475680 1.042786
v -1.042786 -0.475680 1.042786
v -1.042786 -0.475680 -1.042786
v -0.050097 0.000000 1.090813
v 0.000000 0.050097 1.090813
v 0.000000 -0.050097 1.090813
v 0.050097 0.000000 1.090813
v -0.219267 0.169171 1.090813
v -0.050097 0.000000 1.162630
v 0.000000 0.050097 1.162630
v -0.169171 0.219267 1.090813
v -0.169942 0.119845 1.090813
v -0.169942 0.119845 1.162630
v -0.119845 0.169942 1.162630
v -0.119845 0.169942 1.090813
v -0.169171 0.219267 1.395285
v -0.119845 0.169942 1.395285
v -0.219267 0.169171 1.395285
v -0.169942 0.119845 1.395285
v -1.000000 0.446023 -1.000000
v -1.000000 -0.478149 -1.000000
vn -0.0000 -0.0000 1.0000
vn -1.0000 -0.0000 -0.0000
vn -0.0000 -1.0000 -0.0000
vn -0.0000 1.0000 -0.0000
vn 1.0000 -0.0000 -0.0000
vn -0.0000 0.7071 0.7071
vn 0.7071 0.7071 -0.0000
vn -0.7071 0.7071 -0.0000
vn -0.0000 0.7071 -0.7071
vn -0.0000 -0.0000 -1.0000
vn 0.7071 -0.7071 -0.0000
vn -0.7071 -0.7071 -0.0000
vn -0.0000 0.9983 0.0576
vn 0.0576 0.9983 -0.0000
vn 0.0576 -0.9983 -0.0000
vn -0.0000 -0.9983 -0.0576
vn -0.0576 -0.9983 -0.0000
vn -0.0000 -0.9983 0.0576
vn -0.0000 0.9983 -0.0576
vn -0.0576 0.9983 -0.0000
vt 0.517981 0.517529
vt 0.732715 0.517529
vt 0.732715 0.982235
vt 0.517981 0.982235
vt 0.516817 0.520736
vt 0.732525 0.520736
vt 0.732525 0.987551
vt 0.516817 0.987551
vt 0.443684 0.442670
vt 0.057276 0.443671
vt 0.056263 0.057263
vt 0.442672 0.056261
vt 0.577664 0.425553
vt 0.580146 0.052491
vt 0.953287 0.049795
vt 0.950805 0.422857
vt 0.768164 0.517759
vt 0.982925 0.517759
vt 0.982925 0.982524
vt 0.768164 0.982524
vt 1.000000 -0.000000
vt 1.000000 0.469147
vt 0.530951 0.475348
vt 0.530951 0.006201
vt 0.517386 0.513427
vt 0.733124 0.513427
vt 0.733124 0.980305
vt 0.517386 0.980305
vt 0.375323 0.363985
vt 0.375323 0.352931
vt 0.401758 0.352931
vt 0.401758 0.363985
vt 0.254814 0.354811
vt 0.239182 0.354811
vt 0.239182 0.339179
vt 0.254814 0.339179
vt 0.375323 0.330824
vt 0.375323 0.341878
vt 0.359477 0.341878
vt 0.359477 0.330824
vt 0.292211 0.370443
vt 0.292211 0.386075
vt 0.276578 0.386075
vt 0.276578 0.370443
vt 0.375323 0.319770
vt 0.359477 0.319770
vt 0.375323 0.341878
vt 0.359477 0.352931
vt 0.359477 0.341878
vt 0.498422 0.498407
vt 0.001540 0.498407
vt 0.013050 0.485680
vt 0.485694 0.486897
vt 0.498408 0.001525
vt 0.486898 0.014253
vt 0.452934 0.047082
vt 0.452864 0.452933
vt 0.047084 0.047000
vt 0.047013 0.452850
vt 0.014253 0.013035
vt 0.001525 0.001525
vt 0.401758 0.341878
vt 0.401758 0.319770
vt 0.401758 0.330824
vt 0.401758 0.341878
vt 0.375323 0.293327
vt 0.359477 0.293327
vt 0.359477 0.282444
vt 0.375323 0.282444
vt 0.359477 0.379374
vt 0.375323 0.379374
vt 0.375323 0.390258
vt 0.359477 0.390258
vt 0.254574 0.354811
vt 0.254574 0.370443
vt 0.239182 0.370443
vt 0.239182 0.354811
vt 0.359477 0.401311
vt 0.308143 0.401311
vt 0.308143 0.390258
vt 0.375323 0.401311
vt 0.239182 0.386075
vt 0.291970 0.354811
vt 0.291970 0.370443
vt 0.239182 0.323787
vt 0.254814 0.323787
vt 0.308143 0.379374
vt 0.359477 0.304381
vt 0.308143 0.304381
vt 0.308143 0.293327
vt 0.308143 0.282444
s 0
usemtl Material
f 23/1/1 8/2/1 12/3/1 24/4/1
f 24/5/2 12/6/2 10/7/2 21/8/2
f 3/9/3 1/10/3 2/11/3 4/12/3
f 5/13/4 9/14/4 11/15/4 7/16/4
f 22/17/5 6/18/5 8/19/5 23/20/5
f 7/16/6 11/15/6 12/21/6 8/22/6
f 5/13/7 7/16/7 8/22/7 6/23/7
f 11/15/8 9/14/8 10/24/8 12/21/8
f 9/14/9 5/13/9 6/23/9 10/24/9
f 21/25/10 10/26/10 6/27/10 22/28/10
f 33/29/8 34/30/8 16/31/8 15/32/8
f 15/33/10 16/34/10 20/35/10 19/36/10
f 35/37/11 36/38/11 18/39/11 17/40/11
f 17/41/1 18/42/1 39/43/1 38/44/1
f 33/45/12 35/37/12 17/40/12 38/46/12
f 36/47/7 34/30/7 39/48/7 18/49/7
f 21/50/13 22/51/13 29/52/13 32/53/13
f 24/54/14 21/50/14 32/53/14 31/55/14
f 3/9/15 4/12/15 26/56/15 25/57/15
f 4/12/16 2/11/16 28/58/16 26/56/16
f 25/57/10 32/53/10 29/52/10 27/59/10
f 27/59/5 29/52/5 30/60/5 28/58/5
f 26/56/2 31/55/2 32/53/2 25/57/2
f 28/58/1 30/60/1 31/55/1 26/56/1
f 2/11/17 1/10/17 27/59/17 28/58/17
f 1/10/18 3/9/18 25/57/18 27/59/18
f 23/61/19 24/54/19 31/55/19 30/60/19
f 22/51/20 23/61/20 30/60/20 29/52/20
f 20/62/7 16/31/7 34/30/7 36/47/7
f 15/63/12 19/64/12 35/37/12 33/45/12
f 19/64/11 20/65/11 36/38/11 35/37/11
f 41/66/12 42/67/12 14/68/12 37/69/12
f 43/70/7 44/71/7 40/72/7 13/73/7
f 44/74/10 41/75/10 37/76/10 40/77/10
f 13/73/8 14/78/8 47/79/8 45/80/8
f 14/78/8 13/73/8 40/72/8 37/81/8
f 38/44/1 39/43/1 43/82/1 42/76/1
f 34/83/10 33/84/10 41/75/10 44/74/10
f 39/48/7 34/30/7 44/71/7 43/70/7
f 33/45/12 38/46/12 42/67/12 41/66/12
f 48/36/1 46/35/1 45/85/1 47/86/1
f 43/70/7 13/73/7 45/80/7 46/87/7
f 42/67/11 43/88/11 46/89/11 48/90/11
f 14/68/12 42/67/12 48/90/12 47/91/12
